<svg width="52" height="46" viewBox="0 0 52 46" fill="none" xmlns="http://www.w3.org/2000/svg">
<path d="M9.22992 19.4484C8.63397 23.4841 8.27887 27.5448 8.16608 31.6135C14.4035 33.9183 20.3756 36.7489 25.9999 40.066C31.6249 36.7488 37.5978 33.9182 43.8359 31.6135C43.723 27.5448 43.3679 23.4841 42.7721 19.4484M42.7721 19.4484C44.6679 18.8849 46.5897 18.3636 48.5311 17.8883C41.4603 13.5034 33.9125 9.75373 25.9999 6.69495C18.0872 9.75438 10.5394 13.5047 3.46875 17.8902C5.40417 18.3629 7.32456 18.8825 9.22775 19.4484C15.0098 21.1681 20.6199 23.3107 25.9999 25.8539C31.3792 23.3106 36.9908 21.1681 42.7721 19.4484ZM14.6249 28.75C15.0559 28.75 15.4692 28.5986 15.774 28.329C16.0787 28.0594 16.2499 27.6938 16.2499 27.3125C16.2499 26.9313 16.0787 26.5656 15.774 26.2961C15.4692 26.0265 15.0559 25.875 14.6249 25.875C14.1939 25.875 13.7806 26.0265 13.4759 26.2961C13.1711 26.5656 12.9999 26.9313 12.9999 27.3125C12.9999 27.6938 13.1711 28.0594 13.4759 28.329C13.7806 28.5986 14.1939 28.75 14.6249 28.75ZM14.6249 28.75V21.7063C18.3012 19.6848 22.0984 17.8409 25.9999 16.1824M10.8181 38.3199C12.027 37.2531 12.9857 35.9855 13.639 34.5898C14.2923 33.1942 14.6274 31.6981 14.6249 30.1875V27.3125" stroke="black" stroke-width="1.5" stroke-linecap="round" stroke-linejoin="round"/>
</svg>
